<svg xmlns="http://www.w3.org/2000/svg" viewBox="0 0 24 24" fill="#E8B4B8">
  <path d="M19.05 4.91A9.816 9.816 0 0 0 12.04 2c-5.46 0-9.91 4.45-9.91 9.91 0 1.75.46 3.45 1.32 4.95L2.05 22l5.25-1.38c1.45.79 3.08 1.21 4.74 1.21 5.46 0 9.91-4.45 9.91-9.91 0-2.65-1.03-5.14-2.9-7.01zM12.04 20.15c-1.48 0-2.93-.4-4.2-1.15l-.3-.18-3.12.82.83-3.04-.2-.31a8.264 8.264 0 0 1-1.26-4.38c0-4.54 3.7-8.24 8.24-8.24 2.2 0 4.27.86 5.82 2.42a8.183 8.183 0 0 1 2.41 5.83c0 4.54-3.68 8.24-8.22 8.24zm4.52-6.16c-.25-.12-1.47-.72-1.69-.81-.23-.08-.39-.12-.56.12-.17.25-.64.81-.78.97-.14.17-.29.19-.54.06-.25-.12-1.05-.39-1.99-1.23-.74-.66-1.23-1.47-1.38-1.72-.14-.25-.02-.38.11-.51.11-.11.25-.29.37-.43.12-.14.17-.25.25-.41.08-.17.04-.31-.02-.43-.06-.12-.56-1.34-.76-1.84-.2-.48-.4-.42-.56-.43-.14-.01-.3-.01-.47-.01-.17 0-.44.06-.67.31-.23.25-.89.87-.89 2.12s.91 2.45 1.04 2.62c.12.17 1.75 2.67 4.24 3.74.59.26 1.05.42 1.41.53.59.19 1.13.16 1.56.1.48-.07 1.47-.6 1.67-1.18.21-.58.21-1.07.14-1.18-.06-.11-.22-.16-.47-.28z"/>
</svg>
